<?xml version="1.0" encoding="utf-8"?><svg xmlns="http://www.w3.org/2000/svg" xmlns:xlink="http://www.w3.org/1999/xlink"><symbol viewBox="0 0 21 20" id="bones-icon" xmlns="http://www.w3.org/2000/svg"><g clip-path="url(#aclip0_6231_2765)"><path d="M19.78 3.157a2.485 2.485 0 00-1.745-.723c0-.635-.265-1.253-.723-1.711a2.47 2.47 0 00-3.475 0c-.829.811-.934 2.063-.37 3.016l-9.189 9.224c-.935-.565-2.222-.476-3.051.37a2.47 2.47 0 000 3.475 2.485 2.485 0 001.746.723c0 .652.265 1.287.723 1.746a2.47 2.47 0 003.475 0 2.488 2.488 0 00.176-3.316l9.118-9.154c.97.776 2.416.724 3.316-.176a2.47 2.47 0 000-3.474zm-.828 2.645c-.494.494-1.358.512-1.87 0-.07-.07-.105-.106-.158-.176a.552.552 0 00-.847-.07c-.018.017-9.965 10-10 10.052-.212.265-.176.653.106.847.652.476.723 1.446.159 1.993a1.299 1.299 0 01-1.817 0c-.353-.353-.476-.935-.282-1.429a.582.582 0 00-.759-.758 1.374 1.374 0 01-1.428-.282c-.794-.794-.265-2.205.935-2.205.352 0 .687.141.934.37.23.23.6.23.83 0C15.371 3.474 14.718 4.162 14.79 4.021a.593.593 0 00-.124-.67 1.299 1.299 0 010-1.817 1.299 1.299 0 011.817 0c.37.37.476.9.282 1.376a.584.584 0 000 .423c.123.3.459.441.758.335a1.373 1.373 0 011.429.282 1.31 1.31 0 010 1.852z"/><path d="M6.973 7.231a.585.585 0 10.828-.829L5.81 4.41a.585.585 0 10-.83.83L6.974 7.23zM2.687 9.33H5.49a.587.587 0 00.582-.582.587.587 0 00-.582-.582H2.687a.587.587 0 00-.583.582c0 .335.265.582.583.582zM9.318 5.52a.587.587 0 00.582-.582V2.117a.587.587 0 00-.582-.582.587.587 0 00-.582.582v2.821c0 .318.247.582.582.582zM14.098 12.77a.586.586 0 10-.83.828l1.994 1.993a.608.608 0 00.405.176c.512 0 .776-.635.406-1.005l-1.975-1.993zM18.383 10.67h-2.821a.587.587 0 00-.582.582c0 .318.264.582.582.582h2.804a.587.587 0 00.582-.582.561.561 0 00-.565-.582zM11.752 14.48a.587.587 0 00-.582.582v2.804c0 .318.264.582.582.582a.587.587 0 00.582-.582v-2.804a.587.587 0 00-.582-.582z"/></g><defs><clipPath id="aclip0_6231_2765"><path transform="translate(.5)" d="M0 0h20v20H0z"/></clipPath></defs></symbol><symbol viewBox="0 0 21 19" id="by-prod-icon" xmlns="http://www.w3.org/2000/svg"><path d="M20.089 5.825c.27-.364.411-.782.411-1.227 0-1.186-1.007-2.144-2.255-2.144-.468 0-.908.135-1.291.391a2.297 2.297 0 00-1.29-.39c-.469 0-.909.134-1.292.39a2.37 2.37 0 00-1.29-.39c-.469 0-.908.134-1.291.39a2.331 2.331 0 00-2.582 0 2.297 2.297 0 00-1.29-.39c-.469 0-.908.134-1.291.39V1.052L4.784 0h-.738v2.845c-.596.405-.964 1.052-.964 1.753 0 1.187 1.007 2.144 2.255 2.144.468 0 .908-.134 1.29-.39.384.256.823.39 1.291.39.469 0 .922-.134 1.291-.39.369.256.823.39 1.291.39.468 0 .908-.134 1.29-.39.37.256.824.39 1.292.39.468 0 .907-.134 1.29-.39a2.22 2.22 0 001.277.39c.113 0 .241-.013.354-.027-.014.108-.028.216-.028.338 0 .12.014.229.028.337a2.367 2.367 0 00-1.645.364 2.188 2.188 0 00-1.276-.391c-.469 0-.908.135-1.291.39a2.331 2.331 0 00-2.582 0 2.232 2.232 0 00-1.29-.39c-.469 0-.923.135-1.291.39a2.297 2.297 0 00-1.291-.39c-.468 0-.908.135-1.29.39a2.297 2.297 0 00-1.292-.39C1.507 7.363.5 8.32.5 9.507c0 .458.142.876.411 1.227a2.038 2.038 0 000 2.454A2.032 2.032 0 00.5 14.402c0 1.186 1.007 2.144 2.255 2.144.468 0 .922-.149 1.291-.391.383.256.823.39 1.29.39.469 0 .909-.134 1.292-.39.383.256.822.39 1.29.39.469 0 .922-.148 1.291-.39.383.256.823.39 1.291.39.468 0 .908-.134 1.29-.39.37.242.824.39 1.292.39.468 0 .907-.134 1.29-.39v1.793L16.216 19h.738v-2.845c.596-.405.964-1.052.964-1.753 0-1.187-1.007-2.144-2.255-2.144-.468 0-.908.135-1.29.39a2.331 2.331 0 00-2.582 0 2.335 2.335 0 00-1.291-.39c-.468 0-.908.135-1.29.39a2.297 2.297 0 00-1.292-.39c-.468 0-.907.135-1.29.39a2.297 2.297 0 00-1.646-.363c.014-.108.029-.216.029-.338a2.7 2.7 0 00-.029-.337 2.335 2.335 0 001.645-.364c.37.27.823.405 1.291.405.469 0 .908-.135 1.291-.391.369.242.823.39 1.291.39.468 0 .908-.134 1.29-.39.384.256.824.39 1.292.39.468 0 .907-.134 1.29-.39.37.242.823.39 1.291.39.482 0 .922-.148 1.29-.39.384.256.824.39 1.292.39 1.248 0 2.255-.957 2.255-2.143 0-.445-.142-.863-.411-1.227.27-.364.411-.782.411-1.227a2.173 2.173 0 00-.411-1.228zm-.653 2.657c.27.283.412.647.412 1.025 0 .85-.724 1.537-1.617 1.537-.284 0-.568-.08-.809-.202.298-.364.482-.823.482-1.322h-.638c0 .85-.723 1.537-1.617 1.537-.68 0-1.29-.404-1.518-1.024l-.61.188c.085.23.199.432.355.607-.582.31-1.362.257-1.872-.188l-.213-.176-.227.175a1.583 1.583 0 01-1.064.392 1.62 1.62 0 01-1.518-1.012l-.61.216c.085.216.199.418.355.593a1.767 1.767 0 01-1.603 0c.284-.364.468-.822.468-1.321h-.638c0 .85-.723 1.537-1.617 1.537-.213 0-.411-.04-.596-.108a2.257 2.257 0 00-.78-.796l-.355.513c.468.283.752.769.752 1.294a1.5 1.5 0 01-.113.567c-.695.364-1.178 1.065-1.178 1.874h.639c0-.85.723-1.537 1.617-1.537.397 0 .78.135 1.078.391l.212.189.213-.189a1.824 1.824 0 011.901-.162 2.06 2.06 0 00-.482 1.322h.638c0-.432.199-.85.539-1.146a1.71 1.71 0 011.078-.378c.894 0 1.617.688 1.617 1.537h.638c0-.499-.184-.957-.482-1.321.582-.31 1.362-.256 1.887.175l.212.189.213-.189c.298-.256.681-.391 1.078-.391.894 0 1.617.688 1.617 1.537 0 .54-.312 1.052-.808 1.322l-.156.094v2.522l-1.291-.742v-1.78l-.156-.094c-.1-.054-.185-.122-.27-.19l-.213-.188-.212.189c-.298.256-.681.391-1.078.391-.667 0-1.277-.391-1.504-.984l-.61.215c.085.203.199.391.34.567a1.767 1.767 0 01-1.602 0c.156-.19.27-.391.354-.62l-.638-.203c-.227.62-.837 1.025-1.518 1.025-.397 0-.78-.135-1.078-.391l-.212-.189-.213.189c-.51.431-1.29.499-1.872.175a2.1 2.1 0 00.354-.62l-.61-.202c-.227.62-.837 1.024-1.518 1.024-.893 0-1.617-.687-1.617-1.537 0-.85.724-1.537 1.617-1.537v-.593c-.524 0-1.007.175-1.39.458a1.465 1.465 0 01-.212-.768c0-.27.07-.54.212-.77.298.217.639.365 1.036.432l.1-.606c-.795-.108-1.377-.742-1.377-1.497 0-.85.724-1.538 1.617-1.538.397 0 .78.135 1.078.392l.213.188.213-.188c.51-.432 1.29-.5 1.872-.176a2.14 2.14 0 00-.34.607l.61.202c.227-.606.837-1.025 1.517-1.025.894 0 1.617.688 1.617 1.538h.639c0-.5-.185-.958-.483-1.322.582-.31 1.362-.256 1.873.176l.213.188.227-.188c.297-.257.68-.392 1.078-.392.879 0 1.602.688 1.602 1.538h.639c0-.5-.185-.958-.483-1.322.426-.229.95-.27 1.419-.094.085.135.184.27.298.39l.482-.404a1.478 1.478 0 01-.411-1.024c0-.203.042-.392.113-.58.142-.081.284-.176.412-.284l-.426-.458c-.298.256-.68.391-1.078.391-.68 0-1.29-.404-1.518-1.025l-.61.216c.085.23.199.432.355.607-.582.31-1.362.256-1.872-.175l-.213-.19-.227.19c-.51.431-1.291.485-1.873.175.142-.175.27-.378.355-.607l-.61-.202c-.227.607-.837 1.025-1.518 1.025-.397 0-.78-.135-1.078-.391l-.212-.19-.213.19c-.298.242-.681.39-1.078.39-.894 0-1.617-.687-1.617-1.537 0-.54.312-1.052.808-1.321l.156-.095V.661l1.291.741v1.78l.156.095c.1.054.185.121.27.189l.227.175.212-.189c.511-.431 1.291-.485 1.887-.175a2.007 2.007 0 00-.482 1.321h.638c0-.85.723-1.537 1.617-1.537.397 0 .78.135 1.078.391l.213.189.213-.189c.297-.256.68-.391 1.078-.391.879 0 1.602.688 1.602 1.537h.639c0-.499-.185-.957-.483-1.321.582-.31 1.362-.256 1.887.175l.213.189.212-.189c.298-.256.681-.391 1.078-.391.894 0 1.617.688 1.617 1.537 0 .27-.085.54-.212.769a2.337 2.337 0 00-1.39-.459v.607c.893 0 1.617.688 1.617 1.538 0 .377-.142.741-.412 1.024l-.198.203.184.202z"/></symbol><symbol viewBox="0 0 282 129" id="calculator-decorative-line" xmlns="http://www.w3.org/2000/svg"><path opacity=".3" d="M-275.898 17.385c4.473-4.943 20.694-14.83 49.791-14.83 36.373 0 48.379 24.927 68.508 42.912 20.128 17.984 79.454 81.089 138.074 81.089 58.62 0 85.458-54.586 134.19-57.425 48.732-2.84 86.87 40.071 133.836 40.071 46.967 0 88.989-99.705 157.497-99.705 54.805 0 79.572 19.352 85.104 29.028" stroke-width="4" stroke-linecap="round" stroke-dasharray="8 8"/></symbol><symbol viewBox="0 0 235 290" id="decorative-line-block" xmlns="http://www.w3.org/2000/svg"><path d="M62.224-62.818C40.765-45.248 24.247-22.105 13.64 3.432 2.819 29.453-2.031 58.352.818 86.464c1.485 14.601 5.274 29.384 13.578 41.652 8.366 12.36 20.823 21.448 33.886 28.385 13.306 7.088 28.036 12.359 43.1 13.904 13.73 1.424 28.43-.606 39.826-8.876 17.64-12.814 23.914-43.773 3.91-57.465-5.547-3.787-12.154-5.665-18.761-6.483-7.153-.878-14.64-.636-21.641 1.151-13.458 3.424-23.278 13.208-29.036 25.567-12.064 25.81-8.608 57.496 2.515 82.972 11.578 26.536 32.522 47.862 57.618 62.009 24.005 13.571 51.526 20.841 79.137 20.69 26.673-.152 53.557-7.331 75.743-22.356a119.802 119.802 0 0015.155-12.208c.697-.666-.364-1.757-1.061-1.06-18.974 18.024-43.615 28.869-69.408 32.625-26.005 3.786-52.829.454-77.319-8.906-25.793-9.845-49.434-26.415-65.65-48.953-16.579-22.992-25.308-52.225-21.822-80.548 1.606-13.087 5.97-26.567 14.912-36.533 9.85-10.966 24.308-14.359 38.583-13.177 12.821 1.06 26.097 6.785 30.461 19.841 3.546 10.603.879 22.75-5.122 31.929-15.913 24.416-50.313 20.629-73.924 11.905-14.094-5.211-27.946-12.753-39.069-22.962-10.881-9.997-17.792-22.81-21.307-37.078C1.727 88.796 1.09 74.407 1.969 60.382a174.3 174.3 0 017.275-40.017c7.82-25.627 21.428-49.619 39.978-69.006a157.052 157.052 0 0114.184-13.117c.637-.606-.424-1.666-1.182-1.06z"/></symbol><symbol viewBox="0 0 186 73" id="decorative-line-rations" xmlns="http://www.w3.org/2000/svg"><path d="M110.996 3.372C58.888-2.975 2.214 21.023 2.214 37.85c0 17.81 40.527 32.249 90.52 32.249 49.994 0 90.521-14.438 90.521-32.25 0-16.922-56.044-33.106-104.846-26.587" stroke-width="4"/></symbol><symbol viewBox="0 0 232 73" id="decorative-line-sets" xmlns="http://www.w3.org/2000/svg"><path d="M138.809 3.841C73.339-2.506 2.131 21.492 2.131 38.32c0 17.81 50.92 32.249 113.734 32.249 62.813 0 113.733-14.438 113.733-32.249 0-16.923-70.416-33.107-131.733-26.588" stroke-width="4"/></symbol><symbol viewBox="0 0 21 18" id="fruits-icon" xmlns="http://www.w3.org/2000/svg"><path d="M19.9 9.826a13.38 13.38 0 00-.637-1.168 20.618 20.618 0 01-1.543-3.043c-.038-.1-.089-.199-.127-.298a.306.306 0 00-.395-.137.29.29 0 00-.14.385c.038.087.076.162.114.249.395 1.018.918 2.037 1.581 3.13.242.385.446.77.612 1.118.37.758.548 1.391.548 1.876 0 3.006-2.614 5.466-5.827 5.466a6.195 6.195 0 01-2.869-.708c.51-.435.957-.932 1.34-1.491a7.836 7.836 0 001.249-3.367c.23-1.925-.268-3.677-1.288-4.472-.638-.496-1.288-.633-1.913-.583.14-.323.28-.646.408-.97.23-.583.638-1.08 1.173-1.44a3.407 3.407 0 011.9-.572c.09 0 .166 0 .242.013.791.05 1.53.372 2.092.907a.306.306 0 00.42 0 .287.287 0 000-.41 3.908 3.908 0 00-2.435-1.056c.064-.795.434-1.653 1.313-1.963a.293.293 0 00.179-.373c-.051-.149-.23-.223-.383-.174-1.147.41-1.632 1.516-1.696 2.51-.726.037-1.39.26-1.963.646a3.723 3.723 0 00-1.403 1.714c-.166.422-.37.87-.586 1.317-.612.161-1.174.472-1.645.72-.28.15-.549.298-.765.373a5.172 5.172 0 00-.345-1.441c1.428-.137 2.755-.882 3.583-2.037a4.774 4.774 0 00.663-4.348.286.286 0 00-.28-.199C9.496.037 8.004.807 7.086 2.062c-.65.907-.97 2-.905 3.08-.281-.272-.587-.459-.893-.533a.3.3 0 00-.37.198c-.038.15.051.311.217.36.88.237 1.594 1.653 1.721 2.845-.102-.037-.23-.099-.395-.186a9.18 9.18 0 01-.332-.174c-.688-.373-1.53-.82-2.435-.87a2.667 2.667 0 00-1.849.597C1.093 7.95.608 9.069.52 10.422c-.153 2.112.625 4.274 2.091 5.79.115.111.306.123.421.012.115-.112.127-.299.013-.41C1.692 14.41.965 12.41 1.106 10.472c.089-1.192.497-2.174 1.109-2.646.446-.335.918-.497 1.454-.46.765.038 1.517.435 2.18.795.127.063.242.125.357.187.191.1.344.174.485.223.178.063.344.1.484.1.37 0 .803-.224 1.339-.522 1.058-.559 2.384-1.28 3.621-.323.855.658 1.275 2.236 1.071 3.95a7.292 7.292 0 01-1.147 3.118c-.714 1.069-1.696 1.876-2.92 2.435-.268.124-.561.062-.918-.174a1.953 1.953 0 00-.97-.323h-.038a1.79 1.79 0 00-1.084.323c-.357.236-.65.286-.918.174a7.335 7.335 0 01-1.326-.77.299.299 0 00-.42.062.281.281 0 00.063.41 7.35 7.35 0 001.428.832c.179.087.357.112.536.112.382 0 .727-.161.969-.335.217-.15.472-.224.74-.211h.038c.23.012.459.087.65.21.37.25.918.485 1.505.224a8.09 8.09 0 001.326-.757 6.708 6.708 0 003.366.894c3.545 0 6.414-2.708 6.414-6.037 0-.584-.204-1.305-.6-2.137zM7.316 5.976l1.722-2.374 1.44.187a3.872 3.872 0 01-.267.422c-.676.944-1.734 1.578-2.895 1.764zm2.219-4.063l-.395-.845c.408-.21.854-.36 1.326-.434l-.931 1.279zm1.415-.944c.14.758.064 1.54-.204 2.26l-1.313-.16 1.517-2.1zm-2.32.41l.523 1.093-.485.646-.395.534-.6-1.391c.268-.336.587-.646.957-.882zM7.277 2.857l.587 1.354L6.83 5.64a4.303 4.303 0 01.446-2.783z"/></symbol><symbol viewBox="0 0 1198 205" id="info-decorative-line" xmlns="http://www.w3.org/2000/svg"><path opacity=".2" d="M-.5 26.336C6.475 18.353 31.768 2.387 77.141 2.387c56.717 0 75.439 40.255 106.826 69.3 31.387 29.046 123.896 130.958 215.303 130.958 91.408 0 133.257-88.154 209.246-92.74 75.99-4.586 135.46 64.714 208.696 64.714 73.236 0 138.763-161.022 245.588-161.022 85.46 0 124.08 31.253 132.71 46.88" stroke-width="4" stroke-linecap="round" stroke-dasharray="8 8"/></symbol><symbol viewBox="0 0 168 548" id="intro-decorative-zooov" xmlns="http://www.w3.org/2000/svg"><path opacity=".6" fill-rule="evenodd" clip-rule="evenodd" d="M165.609 548h-22.685L28.299 508.823v37.378H2.192V471.25h21.29l116.02 39.776v-40.175h26.107V548zm-25.111-35.577L23.317 472.25H3.189v72.952h24.113v-37.775l115.787 39.574h21.523V471.85h-24.114v40.573zM36.258 394.922l-.009.002c-2.768.504-4.976 1.565-6.674 3.146-1.578 1.47-2.472 3.879-2.472 7.463 0 3.29.88 5.58 2.472 7.062 1.698 1.582 3.906 2.642 6.674 3.147l.009.002c2.721.52 5.648.781 8.781.781h77.723c3.004 0 5.941-.196 8.811-.587 2.767-.508 4.973-1.506 6.667-2.956 1.569-1.471 2.458-3.877 2.458-7.449 0-3.584-.894-5.993-2.472-7.463-1.698-1.581-3.906-2.642-6.675-3.146a48.889 48.889 0 00-8.789-.784H45.039c-3.133 0-6.06.262-8.781.782zm102.646 18.805c-1.86 1.599-4.252 2.665-7.174 3.198-2.923.4-5.913.6-8.968.6H45.039c-3.189 0-6.178-.267-8.968-.8-2.923-.533-5.314-1.665-7.174-3.397-1.86-1.733-2.79-4.331-2.79-7.795 0-3.731.93-6.463 2.79-8.195 1.86-1.732 4.251-2.865 7.174-3.398 2.79-.533 5.78-.799 8.968-.799h77.723c3.055 0 6.045.266 8.968.799 2.922.533 5.314 1.666 7.174 3.398 1.86 1.732 2.79 4.464 2.79 8.195s-.93 6.462-2.79 8.194zM168 405.533c0 12.227-2.141 22.023-6.521 29.297-4.37 7.26-10.66 12.466-18.831 15.607-8.113 3.119-17.739 4.663-28.854 4.663H53.808c-11.246 0-20.875-1.543-28.86-4.665-8.039-3.143-14.195-8.351-18.43-15.611C2.14 427.55 0 417.757 0 405.533c0-12.353 2.139-22.213 6.515-29.488 4.234-7.392 10.39-12.67 18.433-15.814 7.985-3.122 17.614-4.665 28.86-4.665h59.986c11.115 0 20.741 1.544 28.854 4.663 8.175 3.142 14.465 8.418 18.834 15.81 4.378 7.275 6.518 17.138 6.518 29.494zm-7.374-28.981c-4.251-7.196-10.363-12.325-18.334-15.39-7.972-3.065-17.471-4.597-28.498-4.597H53.808c-11.16 0-20.66 1.532-28.498 4.597-7.84 3.065-13.818 8.194-17.936 15.39-4.252 7.062-6.378 16.722-6.378 28.981 0 12.125 2.126 21.719 6.378 28.781 4.118 7.062 10.097 12.125 17.936 15.19 7.838 3.064 17.338 4.597 28.498 4.597h59.986c11.027 0 20.526-1.533 28.498-4.597 7.971-3.065 14.083-8.128 18.334-15.19 4.252-7.062 6.378-16.656 6.378-28.781 0-12.259-2.126-21.919-6.378-28.981zM36.258 273.814l-.009.002c-2.768.504-4.976 1.565-6.674 3.146-1.578 1.47-2.472 3.879-2.472 7.463 0 3.29.88 5.58 2.472 7.062 1.698 1.582 3.906 2.642 6.674 3.147l.009.002c2.721.52 5.648.782 8.781.782h77.723c3.004 0 5.941-.196 8.811-.588 2.767-.508 4.973-1.506 6.667-2.956 1.569-1.471 2.458-3.876 2.458-7.449 0-3.584-.894-5.993-2.472-7.463-1.698-1.581-3.906-2.642-6.675-3.146a48.889 48.889 0 00-8.789-.784H45.039c-3.133 0-6.06.262-8.781.782zm95.472 22.003c-2.923.4-5.913.6-8.968.6H45.039c-3.189 0-6.178-.267-8.968-.8-2.923-.533-5.314-1.665-7.174-3.397-1.86-1.733-2.79-4.331-2.79-7.795 0-3.731.93-6.463 2.79-8.195 1.86-1.732 4.251-2.865 7.174-3.398 2.79-.533 5.78-.799 8.968-.799h77.723c3.055 0 6.045.266 8.968.799 2.922.533 5.314 1.666 7.174 3.398 1.86 1.732 2.79 4.464 2.79 8.195s-.93 6.462-2.79 8.194c-1.86 1.599-4.252 2.665-7.174 3.198zM168 284.425c0 12.227-2.141 22.023-6.521 29.297-4.37 7.26-10.66 12.466-18.831 15.607-8.113 3.119-17.739 4.663-28.854 4.663H53.808c-11.246 0-20.875-1.543-28.86-4.665-8.039-3.143-14.195-8.351-18.43-15.61C2.14 306.443 0 296.649 0 284.425c0-12.353 2.139-22.213 6.515-29.489 4.234-7.391 10.39-12.669 18.433-15.813 7.985-3.122 17.614-4.665 28.86-4.665h59.986c11.115 0 20.741 1.544 28.854 4.663 8.175 3.142 14.464 8.417 18.833 15.809 4.379 7.276 6.519 17.138 6.519 29.495zm-7.374-28.981c-4.251-7.195-10.363-12.325-18.334-15.39-7.972-3.065-17.471-4.597-28.498-4.597H53.808c-11.16 0-20.66 1.532-28.498 4.597-7.84 3.065-13.818 8.195-17.936 15.39-4.252 7.062-6.378 16.722-6.378 28.981 0 12.125 2.126 21.719 6.378 28.781 4.118 7.062 10.097 12.125 17.936 15.19 7.838 3.065 17.338 4.597 28.498 4.597h59.986c11.027 0 20.526-1.532 28.498-4.597 7.971-3.065 14.083-8.128 18.334-15.19 4.252-7.062 6.378-16.656 6.378-28.781 0-12.259-2.126-21.919-6.378-28.981zM36.258 152.706l-.009.002c-2.768.505-4.976 1.565-6.674 3.147-1.578 1.469-2.472 3.878-2.472 7.462 0 3.29.88 5.58 2.472 7.062 1.698 1.582 3.906 2.643 6.674 3.147l.009.002c2.721.52 5.648.782 8.781.782h77.723c3.004 0 5.941-.196 8.811-.588 2.767-.507 4.973-1.506 6.667-2.956 1.569-1.471 2.457-3.876 2.457-7.449 0-3.584-.893-5.993-2.471-7.462-1.698-1.582-3.906-2.642-6.675-3.147a48.889 48.889 0 00-8.789-.784H45.039c-3.133 0-6.06.262-8.781.782zm95.472 22.003c-2.923.4-5.913.6-8.968.6H45.039c-3.189 0-6.178-.266-8.968-.799-2.923-.533-5.314-1.666-7.174-3.398-1.86-1.732-2.79-4.331-2.79-7.795 0-3.731.93-6.463 2.79-8.195 1.86-1.732 4.251-2.864 7.174-3.397 2.79-.533 5.78-.8 8.968-.8h77.723c3.055 0 6.045.267 8.968.8 2.922.533 5.314 1.665 7.174 3.397 1.86 1.732 2.79 4.464 2.79 8.195s-.93 6.462-2.79 8.195c-1.86 1.598-4.252 2.664-7.174 3.197zM168 163.317c0 12.227-2.141 22.023-6.521 29.298-4.37 7.26-10.66 12.465-18.831 15.606-8.113 3.119-17.739 4.663-28.854 4.663H53.808c-11.246 0-20.875-1.543-28.86-4.665-8.039-3.143-14.195-8.35-18.43-15.61C2.14 185.335 0 175.541 0 163.317c0-12.353 2.139-22.213 6.515-29.488 4.234-7.392 10.39-12.669 18.433-15.814 7.985-3.122 17.614-4.665 28.86-4.665h59.986c11.115 0 20.741 1.544 28.854 4.663 8.175 3.143 14.464 8.417 18.833 15.809 4.379 7.276 6.519 17.138 6.519 29.495zm-7.374-28.981c-4.251-7.195-10.363-12.325-18.334-15.39-7.972-3.065-17.471-4.597-28.498-4.597H53.808c-11.16 0-20.66 1.532-28.498 4.597-7.84 3.065-13.818 8.195-17.936 15.39-4.252 7.062-6.378 16.722-6.378 28.981 0 12.125 2.126 21.719 6.378 28.781 4.118 7.062 10.097 12.125 17.936 15.19 7.838 3.065 17.338 4.597 28.498 4.597h59.986c11.027 0 20.526-1.532 28.498-4.597 7.971-3.065 14.083-8.128 18.334-15.19 4.252-7.062 6.378-16.656 6.378-28.781 0-12.259-2.126-21.919-6.378-28.981zm4.983-64.947L2.192 98.931V66.3l104.005-16.5L2.192 34.442V0L165.61 29.946V69.39zm-52.812-19.622L3.189 67.155v30.58l161.423-29.18V30.778L3.189 1.199v32.378l109.608 16.19z"/></symbol><symbol viewBox="0 0 265 97" id="intro-line" xmlns="http://www.w3.org/2000/svg"><path d="M158.874 3.912C84.038-4.704 2.649 27.874 2.65 50.718c.002 24.177 58.206 43.778 130.003 43.778 71.797 0 129.999-19.6 129.997-43.778-.001-22.974-80.489-44.943-150.576-36.094" stroke-width="4" stroke-linecap="round"/></symbol><symbol viewBox="0 0 21 15" id="liver-icon" xmlns="http://www.w3.org/2000/svg"><g clip-path="url(#kclip0_6231_2782)"><path d="M14.134.357c-.268 0-.451.202-.451.497s.183.497.451.497c3.007 0 5.463.093 5.463.9 0 1.957-4.503 4.147-7.142 5.404-.325-.295-.55-.994-.55-1.553 0-.559.183-1.055.493-1.397.494-.497.777-1.304.777-2.096 0-.948-.452-1.802-1.228-2.205-.043-.047-.141-.047-.184-.047-.62-.062-1.312-.109-1.948-.155C8.771.093 7.685 0 6.682 0c-2.95 0-4.404 1.444-5.138 2.655C1.05 3.494.5 5.047.5 6.46c0 1.35.55 3.105.96 4.503.084.248.14.497.226.699.084.294.183.59.225.838.41 1.398.678 2.5 1.906 2.5.677 0 1.454-.807 2.766-2.252.875-.947 1.877-1.987 2.513-2.344a17.259 17.259 0 011.595-.746c.225-.108.31-.403.225-.652-.084-.248-.367-.357-.592-.248a41.72 41.72 0 01-1.595.745c-.819.404-1.821 1.506-2.767 2.547-.734.76-1.82 1.956-2.145 1.956-.452 0-.635-.357-1.002-1.801-.085-.248-.127-.543-.226-.854-.085-.249-.141-.497-.226-.745-.41-1.351-.903-2.997-.903-4.146 0-1.305.55-2.656.86-3.2C3.183 1.756 4.679.995 6.725.995c.96 0 2.047.093 3.091.202.636.046 1.27.093 1.906.155.41.248.635.699.635 1.258s-.184 1.056-.494 1.397c-.494.497-.762 1.289-.762 2.096 0 .746.325 2.05 1.228 2.547a.496.496 0 00.367 0c3.91-1.894 7.82-3.944 7.82-6.397C20.5.45 18.184.357 14.134.357z"/></g><defs><clipPath id="kclip0_6231_2782"><path transform="translate(.5)" d="M0 0h20v15H0z"/></clipPath></defs></symbol><symbol viewBox="0 0 21 14" id="meat-icon" xmlns="http://www.w3.org/2000/svg"><g clip-path="url(#lclip0_6231_2748)"><path d="M18.795 2.435c-.917-.653-2.199-1.18-3.821-1.581C11.846.084 8.319 0 6.944 0 3.391 0 .5 2.593.5 5.777v2.446C.5 11.407 3.392 14 6.943 14c1.635 0 2.87-.464 4.174-.949 1.352-.506 2.74-1.022 4.703-1.022 2.587 0 4.68-1.887 4.68-4.196V5.387c0-1.149-.576-2.14-1.705-2.952zm-.33 5.988c.154.137.4.148.553.01.27-.22.494-.474.694-.737v.137c0 1.93-1.752 3.5-3.903 3.5-2.117 0-3.586.548-4.997 1.075-1.223.464-2.387.896-3.869.896-2.998 0-5.467-2.098-5.655-4.754 1.093 1.792 3.221 3.004 5.655 3.004 1.635 0 2.87-.464 4.174-.949 1.352-.506 2.74-1.022 4.703-1.022.141 0 .294-.01.435-.021.212-.021.377-.19.353-.38-.023-.19-.212-.337-.423-.316-.118.01-.247.01-.365.01-2.116 0-3.586.549-4.997 1.076-1.234.474-2.398.906-3.88.906-3.127 0-5.667-2.277-5.667-5.08 0-2.805 2.54-5.082 5.667-5.082 1.34 0 4.786.084 7.82.833 3.28.811 4.95 2.108 4.95 3.858 0 .96-.448 1.887-1.235 2.54a.334.334 0 00-.012.496z"/><path d="M18.149 8.645a.405.405 0 00-.518-.17h-.011c-.188.085-.27.296-.177.475.07.127.212.19.353.19a.52.52 0 00.177-.032c.188-.084.27-.284.176-.463zM9.765 1.497H9.74c-.211-.01-.4.126-.423.327-.012.19.141.358.353.38h.059c.2 0 .376-.138.387-.328.024-.19-.14-.358-.352-.38z"/><path d="M18.689 4.449c-.388-.696-1.246-1.286-2.563-1.771-1.058-.39-2.222-.643-3.01-.78-.47-.085-.964-.159-1.47-.222-.212-.02-.411.116-.435.306-.035.19.118.369.33.39.493.063.963.137 1.422.21 2.68.475 4.515 1.266 5.032 2.173.106.19.165.4.165.632 0 1.16-1.047 2.098-2.34 2.098-1.305 0-2.563.19-3.868.58a24.07 24.07 0 00-1.635.569c-.352.127-.705.264-1.07.38-.893.316-1.587.442-2.304.442-2.258 0-4.104-1.644-4.104-3.679 0-2.024 1.835-3.68 4.104-3.68.447 0 .894.011 1.329.022.07 0 .152 0 .223.01.223.011.4-.137.412-.337.011-.19-.153-.358-.377-.369-.082 0-.153-.01-.235-.01-.447 0-.905-.01-1.352-.01-2.693 0-4.88 1.96-4.88 4.374 0 2.414 2.187 4.375 4.88 4.375.823 0 1.587-.147 2.587-.485.364-.116.729-.253 1.081-.39.518-.19 1.047-.39 1.576-.548a12.324 12.324 0 013.621-.548c1.717 0 3.116-1.255 3.116-2.794a1.707 1.707 0 00-.235-.938z"/><path d="M7.32 2.794c-1.094 0-1.976.727-1.976 1.613 0 .885.882 1.602 1.975 1.602 1.094 0 1.975-.727 1.975-1.613 0-.885-.881-1.602-1.975-1.602zm0 2.52c-.66 0-1.2-.412-1.2-.907 0-.506.54-.907 1.2-.907.657 0 1.198.4 1.198.907 0 .506-.54.906-1.199.906z"/></g><defs><clipPath id="lclip0_6231_2748"><path transform="translate(.5)" d="M0 0h20v14H0z"/></clipPath></defs></symbol><symbol viewBox="0 0 1444 240" id="page-element-decortive" xmlns="http://www.w3.org/2000/svg"><path d="M2 30.224C10.398 20.816 40.85 2 95.48 2 163.769 2 186.31 49.44 224.1 83.67 261.889 117.897 373.271 238 483.326 238c110.055 0 160.442-103.888 251.934-109.293 91.491-5.404 163.094 76.265 251.27 76.265 88.18 0 167.07-189.76 295.69-189.76 102.9 0 149.39 36.83 159.78 55.246" stroke-width="4" stroke-linecap="round" stroke-dasharray="8 8"/></symbol><symbol viewBox="0 0 372 135" id="page-element-decortive-mobile" xmlns="http://www.w3.org/2000/svg"><path d="M-202.531 18.158c4.621-5.177 21.379-15.532 51.442-15.532 37.578 0 49.982 26.106 70.778 44.942 20.796 18.837 82.088 84.928 142.651 84.928 60.563 0 88.291-57.17 138.638-60.143 50.348-2.974 89.75 41.968 138.274 41.968 48.523 0 91.939-104.425 162.717-104.425 56.623 0 82.21 20.268 87.926 30.402" stroke-width="4" stroke-linecap="round" stroke-dasharray="8 8"/></symbol><symbol viewBox="0 0 49 39" id="rays" xmlns="http://www.w3.org/2000/svg"><g clip-path="url(#oclip0_6231_3237)"><path d="M29.35 24.16c-2.593-5.469-5.77-10.6-9.422-15.396-.557-.701-1.533.28-.975.981a83.551 83.551 0 019.225 15.116c.363.813 1.561.112 1.171-.701zM19.706 37.004a116.02 116.02 0 01-18.87-5.16C0 31.564-.363 32.909.474 33.218c6.132 2.243 12.459 3.954 18.87 5.16.891.14 1.254-1.206.362-1.374zM45.32 19.982c1.227-6.254 2.453-12.48 3.68-18.734.167-.87-1.171-1.262-1.339-.365-1.226 6.254-2.452 12.48-3.679 18.734-.195.87 1.143 1.262 1.338.364z"/></g><defs><clipPath id="oclip0_6231_3237"><rect y="38.378" width="38" height="49" rx="2" transform="rotate(-90 0 38.378)"/></clipPath></defs></symbol><symbol viewBox="0 0 21 21" id="seeds-icon" xmlns="http://www.w3.org/2000/svg"><g clip-path="url(#pclip0_6231_2787)"><path d="M7.742 8.895C7.435 7.819 6.5 7.082 5.416 7.082s-2.02.737-2.326 1.813c-.776.507-1.42 1.29-1.873 2.258C.749 12.167.5 13.35.5 14.594c0 1.69.454 3.272 1.287 4.424.908 1.275 2.195 1.967 3.629 1.967 1.434 0 2.721-.692 3.628-1.967a.31.31 0 00-.058-.43c-.132-.107-.308-.077-.41.062-.79 1.106-1.917 1.72-3.16 1.72-1.244 0-2.37-.614-3.16-1.72-.761-1.06-1.17-2.504-1.17-4.056 0-1.152.219-2.258.658-3.165.424-.906 1.024-1.613 1.755-2.058a.27.27 0 00.132-.2c.205-.86.936-1.475 1.785-1.475.848 0 1.595.6 1.785 1.475a.366.366 0 00.131.2c.732.445 1.332 1.167 1.756 2.058.424.922.659 2.013.659 3.165 0 1.03-.176 2.012-.527 2.873-.059.153 0 .338.16.4a.28.28 0 00.381-.17c.38-.937.57-1.997.57-3.103 0-1.244-.248-2.443-.716-3.441-.44-.968-1.097-1.751-1.873-2.258z"/><path d="M3.221 12.674a.291.291 0 00-.366.215 6.385 6.385 0 00-.22 1.705c0 2.412 1.171 4.148 2.78 4.148 1.61 0 2.78-1.752 2.78-4.148s-1.17-4.148-2.78-4.148c-.731 0-1.404.369-1.901 1.045a.323.323 0 00.043.43c.132.108.308.077.41-.061.395-.523.893-.8 1.449-.8 1.272 0 2.194 1.49 2.194 3.534 0 2.043-.922 3.533-2.194 3.533-1.273 0-2.195-1.49-2.195-3.533 0-.553.073-1.075.205-1.536a.322.322 0 00-.205-.384zM19.212 1.966C18.305.691 17.018 0 15.584 0c-1.434 0-2.736.691-3.628 1.966-.586.815-.995 1.86-1.171 3.011-.044.154.073.323.234.354a.31.31 0 00.337-.262c.16-1.044.526-1.997 1.068-2.734.79-1.106 1.902-1.72 3.16-1.72 1.243 0 2.37.614 3.16 1.72.76 1.06 1.17 2.504 1.17 4.056 0 1.152-.219 2.258-.658 3.164-.424.907-1.024 1.613-1.756 2.059a.27.27 0 00-.131.2c-.205.86-.937 1.474-1.785 1.474-.849 0-1.595-.599-1.785-1.475a.355.355 0 00-.146-.184c-.732-.445-1.332-1.167-1.756-2.058-.424-.922-.644-2.028-.644-3.18a.301.301 0 00-.292-.308.301.301 0 00-.293.308c0 1.244.249 2.442.717 3.44.453.969 1.097 1.752 1.873 2.259.307 1.075 1.243 1.813 2.326 1.813 1.082 0 2.019-.738 2.326-1.813.776-.507 1.434-1.29 1.873-2.258.468-.999.717-2.197.717-3.441 0-1.69-.468-3.257-1.288-4.425z"/><path d="M17.867 8.034c.16.031.322-.061.351-.23a6.33 6.33 0 00.146-1.413c0-2.412-1.17-4.148-2.78-4.148-1.609 0-2.794 1.751-2.794 4.148 0 2.396 1.17 4.148 2.78 4.148.863 0 1.624-.508 2.15-1.414a.306.306 0 00-.102-.415.277.277 0 00-.395.108c-.41.722-.995 1.121-1.638 1.121-1.273 0-2.195-1.49-2.195-3.533s.922-3.533 2.194-3.533c1.273 0 2.195 1.49 2.195 3.533 0 .446-.044.876-.132 1.275a.286.286 0 00.22.353zM4.786 15.977a.301.301 0 00-.292-.308.301.301 0 00-.293.308c0 .168.132.307.293.307.16 0 .292-.139.292-.307zM5.665 17.144a.3.3 0 00.292-.307.3.3 0 00-.292-.308.3.3 0 00-.293.308.3.3 0 00.293.307zM6.176 13.012a.3.3 0 00.293-.308.3.3 0 00-.293-.307.3.3 0 00-.292.307.3.3 0 00.292.308z"/><path d="M14.355 5.023c0 .17.132.308.293.308.161 0 .293-.139.293-.308a.301.301 0 00-.293-.307.301.301 0 00-.293.307zM15.818 4.47a.3.3 0 00.293-.307.3.3 0 00-.293-.307.3.3 0 00-.293.307.3.3 0 00.293.307zM16.345 8.603a.3.3 0 00.293-.307.3.3 0 00-.293-.308.3.3 0 00-.292.308.3.3 0 00.292.307z"/></g><defs><clipPath id="pclip0_6231_2787"><path transform="translate(.5)" d="M0 0h20v21H0z"/></clipPath></defs></symbol><symbol viewBox="0 0 21 20" id="vegetables-icon" xmlns="http://www.w3.org/2000/svg"><g clip-path="url(#qclip0_6231_2774)"><path d="M20.5 11.276c0-1.4-.682-2.752-1.823-3.586a1.346 1.346 0 00-.81-.27c-.365 0-.706.14-.953.387-.047-.035-.094-.082-.141-.117a1.168 1.168 0 00-.612-.247l.141-1.564V5.76c0-.693-.564-1.246-1.246-1.246h-.082c-.694 0-1.247.564-1.247 1.246v.118l.142 1.575c-.2.036-.4.118-.565.247-.059.047-.106.094-.164.141-.024-.035-.06-.058-.094-.082a1.77 1.77 0 00.035-.34c0-.412-.13-.8-.365-1.13a1.929 1.929 0 00-1.681-3.057 1.937 1.937 0 00-1.282-1.21 1.93 1.93 0 00-1.622-.73A1.93 1.93 0 006.308 0a1.94 1.94 0 00-1.681.964 1.956 1.956 0 00-1.799 1.458 2.595 2.595 0 00-1.681 2.41c0 .859.423 1.658 1.128 2.129a1.908 1.908 0 00.54 2.257 2.043 2.043 0 00-.058.459c0 .987.741 1.81 1.705 1.916l.718 1.999a3.66 3.66 0 00-.918.988l-1.693-.377a.906.906 0 00-1.105.882v.13c0 .094.012.176.047.258h-.047a.986.986 0 00-.964.976c0 .53.435.964.964.964h.047a.917.917 0 00-.047.259v.13c0 .493.4.905.905.905.071 0 .13-.012.2-.024l1.693-.376A3.542 3.542 0 007.272 20h.071c.176 0 .365-.012.54-.047l11.065-1.705a1.824 1.824 0 001.552-1.81c0-.73-.423-1.353-1.046-1.647.67-.8 1.046-1.81 1.046-2.857v-.658zm-4.115-3.07a3.966 3.966 0 011.54 3.14v1.188a4.02 4.02 0 01-.47 1.881l-2.587-.4a6.443 6.443 0 01-.165-1.422v-1.317c0-.33.036-.647.083-.976.082.012.153.012.235.012.917 0 1.61-.412 1.61-.965 0-.305-.211-.576-.575-.752l.047-.517a.758.758 0 01.282.129zm-1.411-3.044h.082c.33 0 .6.27.6.6v.058l-.294 3.222.247.082c.282.094.376.212.376.235 0 .083-.341.318-.964.318s-.964-.247-.964-.318c0-.023.094-.14.376-.235l.247-.082-.306-3.222v-.059c0-.329.27-.6.6-.6zm-1.047 2.927l.047.506c-.364.176-.576.447-.576.752 0 .353.294.647.741.824a7.01 7.01 0 00-.094 1.105v1.305c0 .447.047.882.13 1.317l-1.905-.294a3.79 3.79 0 01-.165-1.094v-1.164c0-1.223.588-2.398 1.575-3.14a.787.787 0 01.247-.117zm-3.48 5.244a3.736 3.736 0 01-.27-1.387v-.67c0-1.2.588-2.352 1.563-3.07a.71.71 0 01.929.07 4.551 4.551 0 00-1.199 3.07v1.188c0 .329.035.658.106.987l-1.129-.188zm.024-9.688l.058.33.33-.071c.105-.024.2-.036.282-.036a1.29 1.29 0 011.293 1.294c0 .34-.13.658-.364.905l-.224.223.224.224c.235.247.364.564.364.905v.024c-.094-.012-.176-.024-.27-.024-.294 0-.576.094-.812.27-.587.424-1.046 1-1.363 1.635-.118-.376-.247-.74-.377-1.094.294-1.575 1.4-2.48 1.411-2.492l-.2-.259-.2-.247c-.047.035-.917.753-1.41 2.034-.67-1.54-1.306-2.54-1.34-2.598l-.553.34c.011.013.505.789 1.07 2.023-.953-.364-2.058-.259-2.117-.259l.059.647c.482-.047 1.858-.023 2.504.635.224.553.447 1.164.647 1.823-.976-.518-2.152-.518-2.21-.518v.635c.011 0 1.446.012 2.304.682-.024.2-.047.4-.047.6v.682c0 .435.07.858.188 1.27l-1.834-.283-.282-.035a1.3 1.3 0 01-1.294-1.305c0-.153.036-.306.094-.459l.094-.247-.235-.129a1.282 1.282 0 01-.6-1.093c0-.259.071-.506.212-.718l.2-.305-.317-.153a1.909 1.909 0 01-1.058-1.729 1.94 1.94 0 011.399-1.857l.2-.059.035-.212a1.28 1.28 0 011.27-1.093h.035c.023 0 .047.012.07.012l.236.023.082-.223a1.281 1.281 0 012.446.282zM4.92 10.97h-.223a1.29 1.29 0 01-1.294-1.293c0-.153.035-.306.094-.459l.094-.247-.235-.14a1.282 1.282 0 01-.6-1.094c0-.26.071-.506.212-.718l.2-.305-.317-.153a1.909 1.909 0 01-1.059-1.729 1.94 1.94 0 011.4-1.857l.2-.06.035-.21a1.3 1.3 0 011.27-1.106h.035c.023 0 .047 0 .07.012l.236.023.094-.211A1.26 1.26 0 016.308.647c.624 0 1.153.446 1.27 1.07l.059.329.33-.07c.105-.024.187-.036.281-.036.153 0 .294.035.424.082-.482.13-.894.447-1.14.882-.86.024-1.588.635-1.8 1.458a2.571 2.571 0 00-.552 4.539 1.908 1.908 0 00.54 2.257 2.043 2.043 0 00-.058.459c0 .564.247 1.081.635 1.434a4.47 4.47 0 00-.553.212l-.823-2.293zm-2.81 4.256v-.129c0-.165.153-.282.317-.247l1.54.341a1.25 1.25 0 00-.105.294H2.369a.261.261 0 01-.258-.259zm-.964 1.223c0-.176.14-.317.317-.317H3.745c-.012.105-.012.211-.012.317 0 .106.012.212.012.318H1.464a.316.316 0 01-.317-.318zm1.281 1.611c-.153.035-.317-.094-.317-.247v-.13c0-.14.117-.258.258-.258h1.494c.023.106.059.2.094.294l-1.529.341zm17.425-1.61c0 .587-.423 1.08-1 1.163L7.79 19.318a2.742 2.742 0 01-.447.035h-.07a2.91 2.91 0 01-2.905-2.904 2.91 2.91 0 012.904-2.904h.071c.141 0 .294.012.447.035l11.064 1.705c.576.082 1 .576 1 1.164zm0-4.504c0 .988-.4 1.952-1.105 2.669l-.647-.094a4.63 4.63 0 00.447-1.987v-1.188c0-1.14-.435-2.245-1.187-3.08.129-.118.305-.2.494-.2a.68.68 0 01.423.14 3.837 3.837 0 011.564 3.07l.011.67z"/><path d="M6.955 14.838h.647v3.222h-.647v-3.222zM9.53 14.838h.647v3.222H9.53v-3.222zM12.116 14.838h.647v3.222h-.647v-3.222zM14.691 15.485h.647v1.94h-.647v-1.94zM17.267 15.803h.646v1.293h-.646v-1.293z"/></g><defs><clipPath id="qclip0_6231_2774"><path transform="translate(.5)" d="M0 0h20v20H0z"/></clipPath></defs></symbol></svg>