<svg width="24" height="24" viewBox="0 0 24 24" fill="none" xmlns="http://www.w3.org/2000/svg">
<path d="M4.25895 16.5934C3.14076 14.7084 2.74916 12.48 3.15768 10.3267C3.56621 8.17341 4.74675 6.24331 6.47764 4.89884C8.20852 3.55437 10.3707 2.88801 12.5581 3.0249C14.7455 3.16178 16.8078 4.09249 18.3575 5.64225C19.9073 7.19202 20.838 9.25423 20.9749 11.4417C21.1118 13.6291 20.4455 15.7912 19.101 17.5221C17.7565 19.253 15.8264 20.4336 13.6732 20.8421C11.5199 21.2507 9.29149 20.8591 7.40649 19.7409L7.40651 19.7408L4.29808 20.6289C4.16948 20.6657 4.03338 20.6673 3.90391 20.6338C3.77443 20.6002 3.65628 20.5327 3.56171 20.4381C3.46713 20.3435 3.39956 20.2254 3.36601 20.0959C3.33246 19.9664 3.33415 19.8303 3.37089 19.7017L4.25902 16.5933L4.25895 16.5934Z" stroke="white" stroke-linecap="round" stroke-linejoin="round"/>
<path d="M7.50001 10.0649L7.50001 10.064C7.5022 9.38288 7.77447 8.7304 8.25711 8.24972C8.7397 7.76908 9.39322 7.49947 10.0743 7.5M7.50001 10.0649L10.9515 8.00919C10.8631 7.85451 10.7354 7.72594 10.5813 7.63652C10.4273 7.54717 10.2525 7.50008 10.0745 7.5C10.0744 7.5 10.0744 7.5 10.0743 7.5M7.50001 10.0649C7.49881 10.9103 7.66443 11.7477 7.9874 12.529C8.31036 13.3102 8.78432 14.0201 9.38211 14.6179C9.9799 15.2157 10.6898 15.6896 11.471 16.0126C12.2523 16.3356 13.0897 16.5012 13.9351 16.5L13.9343 16L7.50001 10.0649ZM10.0743 7.5C10.0742 7.5 10.0742 7.5 10.0741 7.5L10.0741 8L10.0743 7.5ZM12.212 12.8897L12.4692 13.3185L12.6746 12.8626C12.597 12.8277 12.5211 12.7896 12.4472 12.7486L12.212 12.8897ZM11.1103 11.788L11.2514 11.5528C11.2104 11.4789 11.1723 11.403 11.1374 11.3254L10.6815 11.5308L11.1103 11.788Z" stroke="white" stroke-linecap="round" stroke-linejoin="round"/>
</svg>
