<svg width="49" height="39" viewBox="0 0 49 39" fill="none" xmlns="http://www.w3.org/2000/svg">
<g clip-path="url(#clip0_6231_3237)">
<path d="M29.3491 24.16C26.7569 18.6913 23.5794 13.5592 19.9281 8.76365C19.3707 8.06254 18.3951 9.04409 18.9526 9.7452C22.5481 14.4286 25.642 19.5046 28.1784 24.8611C28.5407 25.6744 29.7393 24.9732 29.3491 24.16Z" fill="white"/>
<path d="M19.7056 37.0038C13.295 35.8259 6.96787 34.0872 0.835907 31.8436C-0.000270663 31.5632 -0.362614 32.9093 0.473563 33.2178C6.60553 35.4614 12.9326 37.1721 19.3433 38.378C20.2352 38.5182 20.5976 37.1721 19.7056 37.0038Z" fill="white"/>
<path d="M45.3202 19.9815C46.5465 13.7276 47.7729 7.50176 48.9993 1.24788C49.1666 0.378512 47.8287 -0.0141079 47.6615 0.883309C46.4351 7.13718 45.2087 13.363 43.9823 19.6169C43.7872 20.4863 45.125 20.8789 45.3202 19.9815Z" fill="white"/>
</g>
<defs>
<clipPath id="clip0_6231_3237">
<rect y="38.3784" width="38" height="49" rx="2" transform="rotate(-90 0 38.3784)" fill="white"/>
</clipPath>
</defs>
</svg>
