<svg width="235" height="330" fill="none" xmlns="http://www.w3.org/2000/svg"><g clip-path="url(#clip0_8949_350)" fill="#fff"><path d="M111.578 292.198c-3.269 5.093-5.943 10.505-8.08 16.14-.3.844 1.049 1.153 1.349.309a83.603 83.603 0 017.945-15.827c.498-.738-.731-1.384-1.214-.622zm16.001 1.387a116.107 116.107 0 015.606 18.742c.204.858 1.538.454 1.357-.419-1.341-6.391-3.237-12.665-5.605-18.742-.353-.831-1.687-.427-1.358.419zm-27.997-12.728c-5.956 2.268-11.888 4.522-17.843 6.79-.827.318-.452 1.661.398 1.328 5.956-2.268 11.888-4.522 17.843-6.79.841-.294.466-1.637-.398-1.328z"/></g><g clip-path="url(#clip1_8949_350)"><path d="M62.224-62.818C40.765-45.248 24.247-22.105 13.64 3.432 2.819 29.453-2.031 58.352.818 86.464c1.485 14.601 5.274 29.384 13.578 41.652 8.366 12.36 20.823 21.448 33.886 28.385 13.306 7.088 28.036 12.359 43.1 13.904 13.73 1.424 28.43-.606 39.826-8.876 17.64-12.814 23.914-43.773 3.91-57.465-5.547-3.787-12.154-5.665-18.761-6.483-7.153-.878-14.64-.636-21.641 1.151-13.458 3.424-23.278 13.208-29.036 25.567-12.064 25.81-8.608 57.496 2.515 82.972 11.578 26.536 32.522 47.862 57.618 62.009 24.005 13.571 51.526 20.841 79.137 20.69 26.673-.152 53.557-7.331 75.743-22.356a119.802 119.802 0 0015.155-12.208c.697-.666-.364-1.757-1.061-1.06-18.974 18.024-43.615 28.869-69.408 32.625-26.005 3.786-52.829.454-77.319-8.906-25.793-9.845-49.434-26.415-65.65-48.953-16.579-22.992-25.308-52.225-21.822-80.548 1.606-13.087 5.97-26.567 14.912-36.533 9.85-10.966 24.308-14.359 38.583-13.177 12.821 1.06 26.097 6.785 30.461 19.841 3.546 10.603.879 22.75-5.122 31.929-15.913 24.416-50.313 20.629-73.924 11.905-14.094-5.211-27.946-12.753-39.069-22.962-10.881-9.997-17.792-22.81-21.307-37.078C1.727 88.796 1.09 74.407 1.969 60.382a174.3 174.3 0 017.275-40.017c7.82-25.627 21.428-49.619 39.978-69.006a157.052 157.052 0 0114.184-13.117c.637-.606-.424-1.666-1.182-1.06z" fill="#fff"/></g><defs><clipPath id="clip0_8949_350"><rect x="139.172" y="309.579" width="38" height="49" rx="2" transform="rotate(148.054 139.172 309.579)" fill="#fff"/></clipPath><clipPath id="clip1_8949_350"><rect width="296" height="290" rx="2" fill="#fff"/></clipPath></defs></svg>