<svg width="149" height="454" fill="none" xmlns="http://www.w3.org/2000/svg"><g clip-path="url(#clip0_8949_349)" fill="#fff"><path d="M53.313 90.308c5.378-2.776 10.4-6.126 15.068-9.938.682-.58-.332-1.523-1.014-.942a83.55 83.55 0 01-14.794 9.734c-.8.39-.06 1.564.74 1.146zM40.15 81.106a115.956 115.956 0 014.516-19.034c.252-.845-1.106-1.162-1.386-.315-2.034 6.204-3.529 12.586-4.516 19.034-.11.896 1.248 1.212 1.386.315zm17.882 25.022c6.292 1.014 12.556 2.028 18.848 3.041.874.138 1.221-1.213.319-1.349-6.292-1.014-12.556-2.028-18.848-3.041-.876-.166-1.222 1.185-.319 1.349z"/></g><g clip-path="url(#clip1_8949_349)"><path d="M-81.453 422.438c27.37-4.487 53.246-16.27 75.202-33.082 22.381-17.125 41.03-39.727 52.619-65.497 6.014-13.388 10.125-28.084 9.067-42.861-1.065-14.887-7.31-28.985-15.154-41.525-7.979-12.791-18.1-24.721-30.373-33.591-11.18-8.098-24.924-13.69-38.929-12.227-21.683 2.278-42.596 25.952-32.118 47.812 2.91 6.052 7.693 10.983 13.006 14.995 5.756 4.337 12.36 7.87 19.317 9.823 13.366 3.764 26.763.201 37.93-7.623 23.351-16.32 36.202-45.489 39.307-73.114 3.241-28.77-4.234-57.711-18.894-82.51-14.004-23.755-34.202-43.812-58.19-57.487-23.175-13.205-50.047-20.43-76.773-18.51a119.824 119.824 0 00-19.229 2.995c-.937.228-.563 1.703.389 1.448 25.444-6.122 52.206-3.193 76.422 6.45 24.414 9.724 45.978 26.021 62.507 46.373 17.415 21.422 29.604 47.593 32.378 75.219 2.862 28.201-4.195 57.882-21.375 80.668-7.935 10.53-18.455 20.022-31.181 24.182-14.014 4.572-28.23.281-40.003-7.88-10.573-7.328-19.207-18.924-16.46-32.413 2.231-10.955 10.615-20.142 20.401-25.09 25.989-13.189 53.887 7.291 69.973 26.652 9.6 11.559 17.824 25.017 22.353 39.42 4.425 14.098 4.003 28.65-.086 42.764-3.906 13.555-10.55 26.335-18.323 38.042a174.31 174.31 0 01-26.308 31.018c-19.586 18.284-43.368 32.257-69.126 39.773a157.286 157.286 0 01-18.842 4.267c-.854.206-.466 1.655.493 1.509z" fill="#fff"/></g><defs><clipPath id="clip0_8949_349"><rect x="38.106" y="61.459" width="38" height="49" rx="2" transform="rotate(-1.946 38.106 61.459)" fill="#fff"/></clipPath><clipPath id="clip1_8949_349"><rect x="-27.656" y="453.707" width="296" height="353" rx="2" transform="rotate(-150 -27.656 453.707)" fill="#fff"/></clipPath></defs></svg>