<svg width="40" height="40" fill="none" xmlns="http://www.w3.org/2000/svg"><path d="M24.91 6.25a12.524 12.524 0 018.84 8.841m-10.135-4.01a7.513 7.513 0 015.304 5.305M14.45 19.502a13.18 13.18 0 006.102 6.075 1.24 1.24 0 001.223-.093l3.912-2.609a1.25 1.25 0 011.185-.108l7.319 3.136a1.246 1.246 0 01.75 1.296 7.501 7.501 0 01-7.441 6.55A21.25 21.25 0 016.25 12.5a7.502 7.502 0 016.55-7.44 1.246 1.246 0 011.297.75l3.139 7.325a1.251 1.251 0 01-.103 1.177l-2.6 3.971a1.24 1.24 0 00-.084 1.22v0z" stroke="#961914" stroke-width="2" stroke-linecap="round" stroke-linejoin="round"/></svg>