<svg width="40" height="40" fill="none" xmlns="http://www.w3.org/2000/svg"><path d="M14.697 28.84c-1.768 5.302-8.84 5.302-8.84 5.302s0-7.07 5.304-8.838m19.445-8.839L20 27.072 12.929 20 23.535 9.394c4.017-4.016 8.033-3.977 9.746-3.722a1.245 1.245 0 011.047 1.048c.255 1.712.295 5.729-3.722 9.745zm-1.767 1.768V28.32a1.25 1.25 0 01-.366.884l-5.054 5.054a1.25 1.25 0 01-2.11-.639L20 27.072" stroke="#961914" stroke-width="2" stroke-linecap="round" stroke-linejoin="round"/><path d="M21.768 11.162h-10.09a1.25 1.25 0 00-.883.366L5.742 16.58a1.25 1.25 0 00.638 2.11L12.93 20" stroke="#961914" stroke-width="2" stroke-linecap="round" stroke-linejoin="round"/></svg>