<?xml version="1.0" standalone="no"?>
<!DOCTYPE svg PUBLIC "-//W3C//DTD SVG 20010904//EN"
 "http://www.w3.org/TR/2001/REC-SVG-20010904/DTD/svg10.dtd">
<svg version="1.0" xmlns="http://www.w3.org/2000/svg"
 width="270.000000pt" height="270.000000pt" viewBox="0 0 270.000000 270.000000"
 preserveAspectRatio="xMidYMid meet">
<metadata>
Created by potrace 1.14, written by Peter Selinger 2001-2017
</metadata>
<g transform="translate(0.000000,270.000000) scale(0.100000,-0.100000)"
fill="#000000" stroke="none">
<path d="M1175 2690 c-126 -19 -190 -36 -310 -81 -317 -120 -589 -372 -734
-683 -93 -197 -124 -339 -125 -566 0 -249 28 -380 134 -606 170 -364 552 -655
958 -730 12 -2 34 -6 50 -10 53 -10 308 -12 377 -3 602 85 1075 551 1159 1140
14 99 15 332 1 404 -79 424 -298 746 -652 959 -101 61 -286 136 -372 151 -14
2 -51 9 -81 16 -67 13 -336 19 -405 9z"/>
</g>
</svg>
