<svg width="40" height="40" viewBox="0 0 40 40" fill="none" xmlns="http://www.w3.org/2000/svg">
<path d="M14.6967 28.8392C12.929 34.1425 5.85791 34.1425 5.85791 34.1425C5.85791 34.1425 5.85791 27.0715 11.1612 25.3037" stroke="#961914" stroke-width="2" stroke-linecap="round" stroke-linejoin="round"/>
<path d="M30.6064 16.4649L19.9998 27.0715L12.9287 20.0004L23.5353 9.39382C27.5516 5.37754 31.5679 5.41672 33.2807 5.67227C33.5444 5.71159 33.7885 5.83458 33.9771 6.02312C34.1656 6.21166 34.2886 6.45578 34.3279 6.71951C34.5835 8.43234 34.6227 12.4486 30.6064 16.4649Z" stroke="#961914" stroke-width="2" stroke-linecap="round" stroke-linejoin="round"/>
<path d="M28.8388 18.2327V28.3215C28.8388 28.4857 28.8065 28.6482 28.7437 28.7999C28.6809 28.9515 28.5888 29.0893 28.4727 29.2054L23.4193 34.2588C23.2593 34.4188 23.0589 34.5323 22.8395 34.5874C22.62 34.6424 22.3897 34.6368 22.1732 34.5713C21.9567 34.5057 21.762 34.3826 21.6099 34.2151C21.4578 34.0476 21.3541 33.8419 21.3097 33.62L20 27.0715" stroke="#961914" stroke-width="2" stroke-linecap="round" stroke-linejoin="round"/>
<path d="M21.7677 11.1616H11.6789C11.5147 11.1616 11.3522 11.194 11.2005 11.2568C11.0489 11.3196 10.9111 11.4117 10.795 11.5277L5.74161 16.5811C5.58162 16.7411 5.46806 16.9415 5.41303 17.161C5.358 17.3804 5.36356 17.6107 5.42912 17.8273C5.49469 18.0438 5.61779 18.2385 5.78531 18.3906C5.95283 18.5426 6.15849 18.6464 6.38034 18.6907L12.9289 20.0005" stroke="#961914" stroke-width="2" stroke-linecap="round" stroke-linejoin="round"/>
</svg>
