<svg width="40" height="40" fill="none" xmlns="http://www.w3.org/2000/svg"><path d="M20.148 20l-.166 16.064m14.375-8.668V12.604a1.25 1.25 0 00-.635-1.088L20.597 4.098a1.25 1.25 0 00-1.23 0L6.242 11.516a1.25 1.25 0 00-.635 1.088v14.792a1.25 1.25 0 00.635 1.088l13.125 7.419a1.25 1.25 0 001.23 0l13.125-7.419a1.251 1.251 0 00.635-1.088v0z" stroke="#961914" stroke-width="2" stroke-linecap="round" stroke-linejoin="round"/><path d="M34.186 11.973L20.148 20 5.78 11.97" stroke="#961914" stroke-width="2" stroke-linecap="round" stroke-linejoin="round"/><path d="M27.66 23.205v-7.5l-14.497-8.1" stroke="#961914" stroke-width="2" stroke-linecap="round" stroke-linejoin="round"/></svg>